<svg width="106" height="106" viewBox="0 0 106 106" fill="none" xmlns="http://www.w3.org/2000/svg">
<g opacity="0.15">
<path d="M93.208 99.7891C92.1763 92.9372 86.3674 87.6289 79.2928 87.3765C77.1038 83.5831 73.0156 81.1562 68.5273 81.1562C67.8479 81.1562 67.1777 81.213 66.5216 81.3206C66.0376 78.9814 65.6962 76.6105 65.4966 74.2263C69.2027 73.9085 72.6181 73.4489 75.5679 72.8588C80.9652 71.7794 87.1602 69.9585 87.1602 65.4219C87.1602 61.026 81.1722 59.3857 78.918 58.7681C75.6585 57.8752 71.4481 57.1758 66.6032 56.7166L67.5398 52.0336C68.7547 51.2916 69.918 50.4533 71.0192 49.5225C72.2384 49.7697 73.4833 49.8945 74.7383 49.8945C78.3094 49.8945 81.7128 48.9072 84.6822 47.0236C85.8542 47.3837 87.073 47.5654 88.3245 47.5654C95.1739 47.5654 100.746 41.993 100.746 35.1436C100.746 29.4111 96.8873 24.5411 91.5057 23.1312C90.5996 21.2706 89.3773 19.5502 87.9135 18.0863C84.7627 14.9354 80.6811 13.057 76.2896 12.6972C71.0759 4.82114 62.3133 0 53 0C43.6867 0 34.9241 4.82114 29.7102 12.6972C25.3187 13.057 21.2373 14.9354 18.0863 18.0863C15.7673 20.4054 14.1262 23.2386 13.2802 26.3592C9.11124 28.437 6.41797 32.7002 6.41797 37.4727C6.41797 44.3221 11.9904 49.8945 18.8398 49.8945C20.7903 49.8945 22.6807 49.4461 24.3955 48.5863C26.57 49.4457 28.9123 49.8945 31.2617 49.8945C32.5167 49.8945 33.7616 49.7697 34.9806 49.5227C36.082 50.4535 37.2451 51.2918 38.46 52.0338L39.3966 56.7168C34.5517 57.176 30.3413 57.8754 27.0818 58.7683C24.8278 59.3857 18.8398 61.026 18.8398 65.4219C18.8398 69.9585 25.0348 71.7794 30.4319 72.8588C33.3817 73.4489 36.7973 73.9085 40.5032 74.2263C40.3038 76.6105 39.9622 78.9814 39.4782 81.3206C38.8221 81.213 38.1521 81.1562 37.4724 81.1562C32.9842 81.1562 28.896 83.5831 26.707 87.3765C19.6324 87.6289 13.8235 92.937 12.7918 99.7891H0V106H106V99.7891H93.208ZM79.3654 65.4196C78.0491 65.9188 75.8823 66.5434 72.3881 67.1272C70.2351 67.487 67.8439 67.7812 65.3001 68.0062C65.3347 66.2879 65.443 64.5712 65.6254 62.8626C72.8862 63.5201 77.1533 64.5904 79.3654 65.4196ZM37.9726 43.8639L36.6561 42.6039C34.7117 43.201 33.4355 43.6836 31.2617 43.6836C27.9088 43.6836 25.9634 42.5081 23.9442 41.475C22.2944 42.6375 21.1222 43.6836 18.8398 43.6836C15.4151 43.6836 12.6289 40.8974 12.6289 37.4727C12.6289 34.7715 14.3531 32.3969 16.919 31.5636L18.7024 30.9845C19.069 28.8537 19.3614 25.5949 22.478 22.4782C24.8243 20.1319 27.9438 18.8398 31.2617 18.8398C34.5796 18.8398 37.6992 20.1319 40.0454 22.4782L44.4372 18.0863C42.2963 15.9453 39.7247 14.3938 36.9195 13.5036C41.0332 8.92387 46.8669 6.21094 53 6.21094C59.1331 6.21094 64.9668 8.92387 69.0805 13.5036C66.2753 14.3938 63.7037 15.9455 61.5628 18.0863L65.9546 22.4782C68.3008 20.1319 71.4204 18.8398 74.7383 18.8398C78.0562 18.8398 81.1757 20.1319 83.5218 22.478C85.7051 24.6616 86.3059 26.7166 87.0633 28.7658L88.9831 28.967C92.1484 29.2986 94.5352 31.954 94.5352 35.1436C94.5352 38.5683 91.749 41.3545 88.3243 41.3545C86.5832 41.3545 85.6403 40.7471 83.8783 39.891C82.09 41.2812 79.476 43.6836 74.7383 43.6836C72.5754 43.6836 71.2924 43.2022 69.3439 42.6039L68.0274 43.8639C63.9638 47.7528 58.6269 49.8945 53 49.8945C47.3731 49.8945 42.0362 47.7528 37.9726 43.8639ZM49.8945 62.3164V68.4942C48.8929 68.4737 47.8998 68.4433 46.9182 68.4031C46.8532 63.0861 46.2344 59.2358 45.3991 55.0591C47.8455 55.7477 50.3984 56.1055 53 56.1055C55.6016 56.1055 58.1545 55.7477 60.6009 55.0591C59.7852 59.1377 59.1482 62.9818 59.0818 68.4031C58.1002 68.4431 57.1071 68.4735 56.1055 68.4942V62.3164H49.8945ZM33.6121 67.1272C30.1179 66.5434 27.9511 65.9188 26.6348 65.4196C28.8469 64.5904 33.1138 63.5201 40.3748 62.8626C40.5572 64.5712 40.6655 66.2879 40.7001 68.0062C38.1563 67.7812 35.7651 67.487 33.6121 67.1272ZM19.128 99.7891C20.0918 96.2155 23.3612 93.5781 27.235 93.5781H30.8826L31.6145 91.5076C32.4896 89.0311 34.844 87.3672 37.4727 87.3672C40.1013 87.3672 42.4557 89.0311 43.331 91.5076L49.1869 89.4379C48.4025 87.2188 47.0234 85.3273 45.2688 83.9137C45.9686 80.8565 46.4466 77.745 46.7023 74.6134C47.7534 74.6557 48.8186 74.6874 49.8947 74.7083V81.1562H56.1057V74.7081C57.1818 74.6871 58.247 74.6555 59.2981 74.6132C59.5536 77.745 60.0318 80.8565 60.7316 83.9135C58.9768 85.3271 57.5978 87.2185 56.8135 89.4377L62.6694 91.5074C63.5443 89.0311 65.8987 87.3672 68.5273 87.3672C71.156 87.3672 73.5104 89.0311 74.3857 91.5076L75.1176 93.5781H78.7652C82.639 93.5781 85.9084 96.2155 86.8722 99.7891H19.128Z" fill="white"/>
<path d="M99.582 81.1562H93.3711V87.3672H99.582V81.1562Z" fill="white"/>
<path d="M12.6289 87.3672H6.41797V93.5781H12.6289V87.3672Z" fill="white"/>
</g>
</svg>
