<svg width="106" height="106" viewBox="0 0 106 106" fill="none" xmlns="http://www.w3.org/2000/svg">
<g opacity="0.15">
<path d="M90.4768 15.5232C80.4662 5.51304 67.1568 0 53 0C38.8432 0 25.5338 5.51304 15.5232 15.5232C5.51304 25.5338 0 38.8432 0 53C0 67.1568 5.51304 80.4662 15.5232 90.4768C25.5338 100.487 38.8432 106 53 106C67.1568 106 80.4662 100.487 90.4768 90.4768C100.487 80.4662 106 67.1568 106 53C106 38.8432 100.487 25.5338 90.4768 15.5232ZM53 99.7891C27.2004 99.7891 6.21094 78.7996 6.21094 53C6.21094 27.2004 27.2004 6.21094 53 6.21094C78.7996 6.21094 99.7891 27.2004 99.7891 53C99.7891 78.7996 78.7996 99.7891 53 99.7891Z" fill="white"/>
<path d="M53 12.4219C30.6251 12.4219 12.4219 30.6251 12.4219 53C12.4219 75.3749 30.6251 93.5781 53 93.5781C75.3749 93.5781 93.5781 75.3749 93.5781 53C93.5781 30.6251 75.3749 12.4219 53 12.4219ZM53 87.3672C34.0498 87.3672 18.6328 71.9502 18.6328 53C18.6328 34.0498 34.0498 18.6328 53 18.6328C71.9502 18.6328 87.3672 34.0498 87.3672 53C87.3672 71.9502 71.9502 87.3672 53 87.3672Z" fill="white"/>
<path d="M56.1055 49.8945V24.8438H49.8945V56.1055H81.1562V49.8945H56.1055Z" fill="white"/>
<path d="M56.1055 74.9453H49.8945V81.1562H56.1055V74.9453Z" fill="white"/>
<path d="M61.2819 73.56L64.3874 78.9386L69.766 75.8332L66.6606 70.4545L61.2819 73.56Z" fill="white"/>
<path d="M70.4545 66.6636L75.8332 69.7691L78.9387 64.3904L73.56 61.285L70.4545 66.6636Z" fill="white"/>
<path d="M36.2317 30.1698L39.3372 35.5484L44.7159 32.443L41.6104 27.0643L36.2317 30.1698Z" fill="white"/>
<path d="M27.0641 41.6123L32.4427 44.7178L35.5482 39.3391L30.1695 36.2336L27.0641 41.6123Z" fill="white"/>
<path d="M31.0547 49.8945H24.8438V56.1055H31.0547V49.8945Z" fill="white"/>
<path d="M27.0617 64.3896L30.1672 69.7682L35.5459 66.6628L32.4404 61.2841L27.0617 64.3896Z" fill="white"/>
<path d="M36.2336 75.8331L41.6123 78.9386L44.7177 73.5599L39.3391 70.4545L36.2336 75.8331Z" fill="white"/>
</g>
</svg>
