<svg width="106" height="106" viewBox="0 0 106 106" fill="none" xmlns="http://www.w3.org/2000/svg">
<g opacity="0.15">
<g clip-path="url(#clip0)">
<path d="M105.998 94.9723L99.7879 94.974V76.7942H81.1546V94.9787L74.9429 94.9804V64.3717H56.3098V94.9851L50.0981 94.9868V51.9492H31.4647V94.9916L25.2531 94.9932V39.5269H6.61993V94.998L0 94.9996L0.00165622 101.21L106 101.183L105.998 94.9723ZM87.3654 83.0051H93.5771V94.9756L87.3654 94.9773V83.0051ZM62.5206 70.5825H68.7321V94.982L62.5206 94.9837V70.5825ZM37.6756 58.16H43.8872V94.9882L37.6756 94.9899V58.16ZM12.8308 45.7377H19.0424V94.9949L12.8308 94.9965V45.7377Z" fill="white"/>
<path d="M78.285 51.9188L79.8708 57.9237L94.8833 53.9587L90.918 38.9465L84.913 40.5325L86.1614 45.2581L17.0925 4.78932L13.9527 10.1478L83.0814 50.652L78.285 51.9188Z" fill="white"/>
</g>
</g>
<defs>
<clipPath id="clip0">
<rect width="106" height="106" fill="white"/>
</clipPath>
</defs>
</svg>
