<svg width="223" height="60" viewBox="0 0 223 60" fill="none" xmlns="http://www.w3.org/2000/svg">
<path d="M74.6158 24.0305V36.9214H73.005V24.0305H68.5314V22.5305H79.0665V24.0305H74.6158Z" fill="white"/>
<path d="M81.5629 33.0914L79.9979 36.9138H78.2267L84.2043 22.5229H85.1127L91.0673 36.9138H89.2962L87.7312 33.0914H81.5629ZM84.6547 25.4848L82.143 31.5914H87.1739L84.6547 25.4848Z" fill="white"/>
<path d="M93.3117 22.5305H97.9533C99.8083 22.5305 101.312 22.995 102.457 23.9315C103.603 24.8605 104.175 26.1244 104.175 27.7158C104.175 28.8808 103.847 29.863 103.183 30.6549C102.526 31.4468 101.625 32.0102 100.48 32.3376C101.266 32.665 102.06 33.4645 102.87 34.7209L104.312 36.9214H102.48L101.305 35.094C100.717 34.1879 100.19 33.6016 99.7396 33.3275C99.2892 33.0534 98.6632 32.9087 97.8616 32.8935H94.9149V36.9214H93.3041V22.5305H93.3117ZM94.9149 24.0305V31.3935H98.0678C99.4037 31.3935 100.495 31.0889 101.358 30.4721C102.213 29.8554 102.648 28.9341 102.648 27.7158C102.648 26.5128 102.221 25.5914 101.358 24.9747C100.495 24.3503 99.4037 24.0381 98.0678 24.0381H94.9149V24.0305Z" fill="white"/>
<path d="M112.992 22.3858C115.161 22.3858 116.978 23.1853 118.436 24.7919L117.382 25.7589C116.199 24.5102 114.733 23.8858 112.992 23.8858C111.382 23.8858 110.03 24.4416 108.924 25.5609C107.817 26.6802 107.267 28.066 107.267 29.7259C107.267 31.3858 107.817 32.7716 108.924 33.8909C110.03 35.0102 111.389 35.566 112.992 35.566C114.489 35.566 115.771 35.0787 116.825 34.1041V30.632H112.87V29.3757H118.436V34.698C116.993 36.2741 115.176 37.066 112.992 37.066C110.962 37.066 109.229 36.3503 107.801 34.9188C106.374 33.4873 105.656 31.7589 105.656 29.7259C105.656 27.7005 106.374 25.9645 107.801 24.533C109.229 23.1015 110.962 22.3858 112.992 22.3858Z" fill="white"/>
<path d="M123.466 28.9036H130.536V30.4036H123.466V35.4214H130.986V36.9214H121.856V22.5305H130.986V24.0305H123.466V28.9036Z" fill="white"/>
<path d="M138.139 24.0305V36.9214H136.528V24.0305H132.055V22.5305H142.59V24.0305H138.139Z" fill="white"/>
<path d="M155.973 36.9214H153.125V31.0204H147.537V36.9214H144.689V22.5305H147.537V28.3478H153.125V22.5305H155.973V36.9214Z" fill="white"/>
<path d="M170.996 22.5305V30.8757C170.996 32.8478 170.424 34.3706 169.286 35.4518C168.149 36.5254 166.767 37.0661 165.141 37.0661C163.507 37.0661 162.118 36.5254 160.988 35.4518C159.858 34.3782 159.286 32.8478 159.286 30.8757V22.5305H162.133V30.8148C162.133 32.0635 162.423 32.9696 162.996 33.5407C163.576 34.1117 164.286 34.3935 165.141 34.3935C165.996 34.3935 166.706 34.1117 167.286 33.5407C167.866 32.9696 168.149 32.0635 168.149 30.8148V22.5305H170.996Z" fill="white"/>
<path d="M185.242 36.9214H183.555L176.73 27.8529V36.9214H173.882V22.5305H175.554L182.394 31.599V22.5305H185.242V36.9214Z" fill="white"/>
<path d="M193.754 25.2031V36.9214H190.906V25.2031H186.952V22.5305H197.708V25.2031H193.754Z" fill="white"/>
<path d="M202.571 28.3478H208.816V31.0204H202.571V34.2488H209.335V36.9214H199.731V22.5305H209.335V25.2031H202.571V28.3478Z" fill="white"/>
<path d="M211.557 22.5305H216.465C218.427 22.5305 219.969 23.0407 221.069 24.061C222.176 25.0813 222.725 26.3833 222.725 27.9595C222.725 29.0254 222.45 29.9544 221.908 30.7386C221.366 31.5229 220.603 32.1016 219.61 32.4823C220.214 32.863 220.931 33.7082 221.756 35.0102L222.992 36.9214H219.794L218.87 35.4823C218.29 34.6067 217.839 34.0432 217.519 33.7996C217.198 33.5559 216.687 33.4265 215.984 33.4112H214.396V36.929H211.549V22.5305H211.557ZM214.404 25.2031V30.731H216.732C217.725 30.731 218.519 30.495 219.122 30.0305C219.725 29.5661 220.03 28.8732 220.03 27.9518C220.03 27.0762 219.725 26.3985 219.114 25.9188C218.504 25.4391 217.71 25.1955 216.732 25.1955H214.404V25.2031Z" fill="white"/>
<path d="M27.7958 8.55076L27.8568 0L30.5822 5.50508C30.7196 5.79442 30.9181 6.01523 31.1777 6.18274L49.6217 16.7437C50.6981 17.3376 51.2096 18.1294 51.2249 19.0964V27.2132L48.9117 27.2056V20.4442C48.9117 19.8883 48.7285 19.0888 47.8888 18.4264L31.3075 8.55076C30.4295 8.05584 29.0401 7.90355 27.7958 8.55076Z" fill="white"/>
<path d="M31.3075 51.4492L31.2541 60L28.5287 54.4949C28.3913 54.2056 28.1928 53.9848 27.9332 53.8173L9.48921 43.2563C8.4128 42.6624 7.90132 41.8706 7.88605 40.9036V32.7868L10.1992 32.7944V39.5558C10.1992 40.1117 10.3824 40.9112 11.2222 41.5736L27.7958 51.4492C28.6814 51.9442 30.0708 52.0964 31.3075 51.4492Z" fill="white"/>
<path d="M10.2602 31.5457L0 31.5381L7.82496 28.1727L7.88604 20.1244C7.8784 18.731 8.5502 17.5584 9.96251 16.6371L26.0934 6.98992L26.7499 6.58636V9.29702L11.6802 18.2589C10.7412 18.7996 10.2908 19.6676 10.3137 20.863L10.2602 31.5457Z" fill="white"/>
<path d="M48.8583 28.4999L59.1185 28.5075L51.2935 31.873L51.2325 39.9212C51.2401 41.3146 50.5683 42.4872 49.156 43.4085L33.0251 53.0557L32.3762 53.4441V50.7486L47.4383 41.7867C48.3773 41.2461 48.8277 40.3781 48.8048 39.1826L48.8583 28.4999Z" fill="white"/>
<path d="M46.3009 18.9975L31.1854 10.0204C30.1777 9.47978 28.9257 9.47978 27.918 10.0204L12.8024 18.9975C11.9321 19.5229 11.5733 20.2539 11.5275 21.0991V38.8935C11.5657 39.7463 11.9321 40.4696 12.8024 40.995L27.918 49.9722C28.9257 50.5128 30.1777 50.5128 31.1854 49.9722L46.3009 40.995C47.1712 40.4696 47.53 39.7387 47.5758 38.8935V21.0991C47.5376 20.2539 47.1712 19.5305 46.3009 18.9975ZM15.001 36.5711C13.7949 36.0534 13.772 35.0102 14.5583 34.0585L14.9018 33.731C15.0545 33.5483 14.856 33.1752 14.6651 32.8326C14.1766 31.1346 22.1084 26.4214 23.4902 26.094C23.4902 26.094 20.7495 28.1041 23.5818 30.5788C26.2003 32.863 32.3686 33.0382 32.3686 33.0382C22.3145 33.0458 14.6651 33.5635 15.001 36.5711ZM35.5139 30.6092C32.5824 30.7615 32.3686 31.9874 32.3686 31.9874C28.3913 31.6371 26.666 30.9595 26.666 30.9595C28.8951 28.9112 35.6437 28.8808 40.8196 30.6092C40.8272 30.6092 40.1096 30.3732 35.5139 30.6092ZM28.5821 28.5534C27.9714 28.6828 25.8262 29.1016 24.9483 30.1981C24.9483 30.1981 23.9101 29.5204 23.7345 28.9036C23.3375 27.4798 24.3147 26.2615 25.3529 26.0331C33.781 24.1752 43.4228 30.5483 43.4228 30.5483C39.1477 28.896 33.7962 27.4493 28.5821 28.5534ZM21.2763 25.8503C21.2763 25.8503 21.4824 25.0052 20.9786 24.6168C20.1388 23.9696 17.8791 24.4341 17.8791 24.4341C29.5593 19.0585 42.0334 25.8656 46.2093 31.3326C46.2093 31.3402 32.8038 20.8554 21.2763 25.8503Z" fill="white"/>
<path d="M16.0698 31.8198C16.0087 31.7817 15.6957 31.8883 15.4667 32.269C15.1537 32.7868 15.3064 33.297 15.3064 33.297C15.4896 33.2513 16.024 32.8934 16.0698 32.6574C16.1385 32.3376 16.1691 31.8883 16.0698 31.8198Z" fill="white"/>
</svg>
